HIERARCHY
ROOT Hips
{
	OFFSET 0.000000 0.000000 0.000000
	CHANNELS 6 Xposition Yposition Zposition Zrotation Yrotation Xrotation 
	JOINT LHipJoint
	{
		OFFSET 0.000000 0.000000 0.000000
		CHANNELS 3 Zrotation Yrotation Xrotation
		JOINT LeftUpLeg
		{
			OFFSET 1.363060 -1.794630 0.839290
			CHANNELS 3 Zrotation Yrotation Xrotation
			JOINT LeftLeg
			{
				OFFSET 2.448110 -6.726130 0.000000
				CHANNELS 3 Zrotation Yrotation Xrotation
				JOINT LeftFoot
				{
					OFFSET 2.562200 -7.039590 0.000000
					CHANNELS 3 Zrotation Yrotation Xrotation
					JOINT LeftToeBase
					{
						OFFSET 0.157640 -0.433110 2.322550
						CHANNELS 3 Zrotation Yrotation Xrotation
						End Site
						{
							OFFSET 0.000000 0.000000 0.000000
						}
					}
				}
			}
		}
	}
	JOINT RHipJoint
	{
		OFFSET 0.000000 0.000000 0.000000
		CHANNELS 3 Zrotation Yrotation Xrotation
		JOINT RightUpLeg
		{
			OFFSET -1.305520 -1.794630 0.839290
			CHANNELS 3 Zrotation Yrotation Xrotation
			JOINT RightLeg
			{
				OFFSET -2.542530 -6.985550 0.000000
				CHANNELS 3 Zrotation Yrotation Xrotation
				JOINT RightFoot
				{
					OFFSET -2.568260 -7.056230 0.000000
					CHANNELS 3 Zrotation Yrotation Xrotation
					JOINT RightToeBase
					{
						OFFSET -0.164730 -0.452590 2.363150
						CHANNELS 3 Zrotation Yrotation Xrotation
						End Site
						{
							OFFSET 0.000000 0.000000 0.000000
						}
					}
				}
			}
		}
	}
	JOINT LowerBack
	{
		OFFSET 0.000000 0.000000 0.000000
		CHANNELS 3 Zrotation Yrotation Xrotation
		JOINT Spine
		{
			OFFSET 0.028270 2.035590 -0.193380
			CHANNELS 3 Zrotation Yrotation Xrotation
			JOINT Spine1
			{
				OFFSET 0.056720 2.048850 -0.042750
				CHANNELS 3 Zrotation Yrotation Xrotation
				JOINT Neck
				{
					OFFSET 0.000000 0.000000 0.000000
					CHANNELS 3 Zrotation Yrotation Xrotation
					JOINT Neck1
					{
						OFFSET -0.054170 1.746240 0.172020
						CHANNELS 3 Zrotation Yrotation Xrotation
						JOINT Head
						{
							OFFSET 0.104070 1.761360 -0.123970
							CHANNELS 3 Zrotation Yrotation Xrotation
							End Site
							{
								OFFSET 0.000000 0.000000 0.000000
							}
						}
					}
				}
				JOINT LeftShoulder
				{
					OFFSET 0.000000 0.000000 0.000000
					CHANNELS 3 Zrotation Yrotation Xrotation
					JOINT LeftArm
					{
						OFFSET 3.362410 1.200890 -0.311210
						CHANNELS 3 Zrotation Yrotation Xrotation
						JOINT LeftForeArm
						{
							OFFSET 4.983000 -0.000000 -0.000000
							CHANNELS 3 Zrotation Yrotation Xrotation
							JOINT LeftHand
							{
								OFFSET 3.483560 -0.000000 -0.000000
								CHANNELS 3 Zrotation Yrotation Xrotation
								JOINT LeftFingerBase
								{
									OFFSET 0.000000 0.000000 0.000000
									CHANNELS 3 Zrotation Yrotation Xrotation
									JOINT LeftHandIndex1
									{
										OFFSET 0.715260 -0.000000 -0.000000
										CHANNELS 3 Zrotation Yrotation Xrotation
										End Site
										{
											OFFSET 0.000000 0.000000 0.000000
										}
									}
								}
								JOINT LThumb
								{
									OFFSET 0.000000 0.000000 0.000000
									CHANNELS 3 Zrotation Yrotation Xrotation
									End Site
									{
										OFFSET 0.000000 0.000000 0.000000
									}
								}
							}
						}
					}
				}
				JOINT RightShoulder
				{
					OFFSET 0.000000 0.000000 0.000000
					CHANNELS 3 Zrotation Yrotation Xrotation
					JOINT RightArm
					{
						OFFSET -3.136600 1.374050 -0.404650
						CHANNELS 3 Zrotation Yrotation Xrotation
						JOINT RightForeArm
						{
							OFFSET -5.241900 -0.000000 -0.000000
							CHANNELS 3 Zrotation Yrotation Xrotation
							JOINT RightHand
							{
								OFFSET -3.444170 -0.000000 -0.000000
								CHANNELS 3 Zrotation Yrotation Xrotation
								JOINT RightFingerBase
								{
									OFFSET 0.000000 0.000000 0.000000
									CHANNELS 3 Zrotation Yrotation Xrotation
									JOINT RightHandIndex1
									{
										OFFSET -0.622530 -0.000000 -0.000000
										CHANNELS 3 Zrotation Yrotation Xrotation
										End Site
										{
											OFFSET 0.000000 0.000000 0.000000
										}
									}
								}
								JOINT RThumb
								{
									OFFSET 0.000000 0.000000 0.000000
									CHANNELS 3 Zrotation Yrotation Xrotation
									End Site
									{
										OFFSET 0.000000 0.000000 0.000000
									}
								}
							}
						}
					}
				}
			}
		}
	}
}
MOTION
Frames: 6
Frame Time: 0.008333
22.299968 17.857939 -20.027566 -4.202490 9.757990 11.875863 -3.628723 -1.897931 -1.652642 -12.870653 -1.070682 -35.377862 2.461565 11.327954 32.536988 0.385812 -1.594343 -8.042881 0.953400 6.218000 17.418300 1.730747 0.985743 -0.810891 20.709229 -0.392522 -31.435974 -12.876853 -18.248045 68.763620 -2.253066 0.622852 28.508463 -1.497800 -7.730500 21.898600 0.196776 5.362351 9.865416 0.689764 7.340574 -4.217637 2.421241 3.599501 -2.721290 4.344115 -6.871240 -12.394126 2.283613 -9.860785 6.371238 -2.217800 -4.792900 2.052300 10.712060 -3.704427 2.690234 -95.208864 19.259556 49.682800 33.305824 -43.691720 -10.651328 -0.259766 2.242882 -14.535066 21.192804 6.817980 1.684300 -7.125000 0.000000 0.000000 -4.741200 34.671500 1.205600 -8.126516 3.841401 0.615940 90.819335 -5.748649 16.242427 -53.849719 54.624769 -27.612848 1.108563 -0.761354 -1.532158 -31.686835 -15.614392 9.160400 7.125000 0.000000 0.000000 -5.063400 -47.012500 0.252100 
22.324812 17.922067 -19.899841 -3.516432 9.446661 11.901459 -3.752668 -1.858580 -1.493343 -13.663270 -0.627469 -34.439414 2.252294 11.028731 31.592099 0.409907 -1.689491 -8.256713 0.938300 6.169900 17.278200 1.744549 1.016921 -0.930122 19.103421 1.070418 -33.825425 -13.812895 -18.602174 71.719558 -2.889148 -2.728271 31.559090 -2.087000 -9.045000 25.936200 -0.428525 5.202379 10.062852 0.631314 7.081030 -4.149478 2.675350 3.471081 -2.744223 3.996206 -6.655943 -12.027626 2.314733 -9.529796 6.015361 -2.106900 -4.649300 1.883700 10.747328 -3.717885 2.674172 -95.626250 18.459024 49.437733 32.844957 -43.390342 -10.383404 -0.259312 2.244094 -14.440096 20.840882 6.738767 1.625400 -7.125000 0.000000 0.000000 -5.022600 34.576900 1.289200 -8.132049 3.806887 0.652177 91.450943 -5.720124 15.858751 -52.710906 54.247506 -26.755203 1.083553 -0.730423 -2.596270 -32.171173 -16.386449 9.791800 7.125000 0.000000 0.000000 -5.461700 -47.982300 0.403000 
22.346896 17.883102 -19.780291 -2.812008 9.111386 11.851792 -3.843536 -1.827819 -1.384004 -14.420131 -0.387474 -33.776419 2.181710 10.917939 31.268329 0.418978 -1.486708 -8.788720 0.864700 5.929300 16.579500 1.759814 1.048722 -0.996506 18.041625 1.703125 -35.129048 -14.513806 -18.820483 73.962663 -3.302998 -1.455466 34.071980 -1.050100 -6.516200 18.289700 -1.053634 5.047184 10.304169 0.569257 6.826647 -4.073965 2.915532 3.344465 -2.766726 3.673517 -6.438613 -11.735202 2.327206 -9.201465 5.735457 -2.014600 -4.502000 1.755800 10.788237 -3.723740 2.647953 -95.996973 17.553148 49.273846 32.280152 -42.992110 -10.057245 -0.250380 2.239624 -14.264043 20.468291 6.477670 1.501900 -7.125000 0.000000 0.000000 -5.307900 34.297300 1.399100 -8.140478 3.773895 0.693080 92.061576 -5.695437 15.526752 -51.306120 53.750782 -25.707932 1.057585 -0.692673 -2.933052 -33.149362 -17.470671 10.835600 7.125000 0.000000 0.000000 -6.358400 -49.422500 0.695900 
22.380234 17.886181 -19.665519 -2.262090 8.756942 11.923042 -3.939197 -1.801594 -1.276173 -15.009565 -0.340342 -33.050178 2.062259 10.727160 30.694109 0.412023 -1.201097 -9.175684 0.917100 6.101600 17.079600 1.770243 1.074804 -1.088151 16.749662 2.908098 -37.098170 -15.249905 -19.029227 76.221199 -3.728468 -3.417779 35.890799 -1.360900 -7.384000 20.858200 -1.376006 4.914189 10.429682 0.506002 6.620463 -4.032762 3.009710 3.241174 -2.761121 3.305745 -6.233535 -11.514588 2.332900 -8.885958 5.531792 -1.918000 -4.356400 1.670800 10.832112 -3.718991 2.609972 -96.329728 16.514045 49.283960 31.616542 -42.509797 -9.698569 -0.229548 2.240122 -14.088839 20.404325 6.325111 1.441900 -7.125000 0.000000 0.000000 -5.358700 34.138400 1.433300 -8.155383 3.737977 0.732588 92.578468 -5.660959 15.157973 -49.643447 53.110154 -24.467179 1.028713 -0.666909 -2.863720 -34.032391 -18.310598 11.728500 7.125000 0.000000 0.000000 -7.199500 -50.577000 0.993900 
22.400195 17.952751 -19.528345 -2.082619 8.825814 11.704176 -4.028569 -1.757827 -1.152786 -15.123004 -0.395640 -31.992943 1.975853 10.584534 30.268843 0.423120 -1.091186 -9.530176 0.930200 6.143800 17.202400 1.782453 1.096242 -1.161605 16.266641 3.697574 -38.439288 -15.781281 -19.162541 77.860954 -3.434490 -2.591410 34.506109 -1.485900 -7.701300 21.810400 -1.407615 4.695378 10.573464 0.552081 6.336138 -3.983548 3.174373 3.096245 -2.745516 2.976899 -6.056663 -11.267680 2.337910 -8.612050 5.476315 -1.833100 -4.223400 1.627500 10.891164 -3.704996 2.567275 -96.633293 15.370915 49.222985 30.870653 -41.977336 -9.346026 -0.210201 2.273138 -13.316494 20.840220 7.323347 1.834600 -7.125000 0.000000 0.000000 -5.082300 35.174300 1.230500 -8.161139 3.698525 0.777933 92.998648 -5.660521 14.853841 -47.172412 52.047849 -22.632613 0.989783 -0.643148 -1.964751 -35.209066 -19.175586 12.810400 7.125000 0.000000 0.000000 -8.378300 -51.846000 1.420600 
22.424296 17.961032 -19.400726 -1.717443 8.751929 11.621756 -4.113943 -1.723618 -1.041839 -15.480644 -0.403144 -31.138695 1.877192 10.418328 29.774279 0.423414 -0.912539 -9.839219 0.929600 6.141900 17.196800 1.788471 1.121171 -1.240316 15.422536 4.528110 -40.086959 -16.359120 -19.288819 79.629490 -3.473507 -2.449189 34.724292 -1.486900 -7.703700 21.817700 -1.594256 4.491231 10.681066 0.543973 6.051422 -3.940489 3.304316 2.952472 -2.719743 2.663414 -5.856175 -11.028658 2.350960 -8.311974 5.353192 -1.747300 -4.080000 1.561300 10.938064 -3.693688 2.527522 -96.910969 14.320758 49.133626 30.292669 -41.557495 -9.062402 -0.200821 2.292083 -12.713848 20.870002 7.919423 2.053800 -7.125000 0.000000 0.000000 -5.103300 35.787500 1.159200 -8.172587 3.659986 0.817512 93.460125 -5.655577 14.498657 -45.258580 51.151966 -21.233703 0.952401 -0.621547 -1.613268 -36.122523 -20.029193 13.801400 7.125000 0.000000 0.000000 -9.311500 -53.054900 1.858000 
